<svg width="45" height="45" viewBox="0 0 45 45" fill="none" xmlns="http://www.w3.org/2000/svg">
<path d="M35.7015 7.05C33.7397 5.09906 32.6586 2.59358 32.6594 0H23.7915V31C23.7231 32.6776 22.91 34.2665 21.5236 35.4323C20.1371 36.5981 18.2854 37.2498 16.3584 37.25C12.2832 37.25 8.89668 34.35 8.89668 30.75C8.89668 26.45 13.6607 23.225 18.5682 24.55V16.65C8.66709 15.5 0 22.2 0 30.75C0 39.075 7.92092 45 16.3297 45C25.3412 45 32.6594 38.625 32.6594 30.75V15.025C36.2554 17.2746 40.5728 18.4816 45 18.475V10.75C45 10.75 39.6046 10.975 35.7015 7.05Z" fill="white"/>
</svg>
