<svg width="46" height="46" viewBox="0 0 46 46" fill="none" xmlns="http://www.w3.org/2000/svg">
<path d="M13.106 0H32.087C39.3179 0 45.193 5.98 45.193 13.34V32.66C45.193 36.198 43.8122 39.5911 41.3543 42.0928C38.8965 44.5945 35.5629 46 32.087 46H13.106C5.87509 46 0 40.02 0 32.66V13.34C0 9.80201 1.3808 6.40893 3.83865 3.9072C6.29649 1.40546 9.63005 0 13.106 0ZM12.654 4.6C10.4966 4.6 8.42747 5.47235 6.90191 7.02516C5.37635 8.57796 4.5193 10.684 4.5193 12.88V33.12C4.5193 37.697 8.15733 41.4 12.654 41.4H32.5389C34.6964 41.4 36.7655 40.5276 38.2911 38.9748C39.8166 37.422 40.6737 35.316 40.6737 33.12V12.88C40.6737 8.303 37.0356 4.6 32.5389 4.6H12.654ZM34.4596 8.05C35.2088 8.05 35.9272 8.3529 36.4569 8.89207C36.9866 9.43124 37.2842 10.1625 37.2842 10.925C37.2842 11.6875 36.9866 12.4188 36.4569 12.9579C35.9272 13.4971 35.2088 13.8 34.4596 13.8C33.7105 13.8 32.9921 13.4971 32.4624 12.9579C31.9327 12.4188 31.6351 11.6875 31.6351 10.925C31.6351 10.1625 31.9327 9.43124 32.4624 8.89207C32.9921 8.3529 33.7105 8.05 34.4596 8.05ZM22.5965 11.5C25.593 11.5 28.4667 12.7116 30.5856 14.8683C32.7044 17.0249 33.8947 19.95 33.8947 23C33.8947 26.05 32.7044 28.9751 30.5856 31.1317C28.4667 33.2884 25.593 34.5 22.5965 34.5C19.6 34.5 16.7263 33.2884 14.6074 31.1317C12.4886 28.9751 11.2982 26.05 11.2982 23C11.2982 19.95 12.4886 17.0249 14.6074 14.8683C16.7263 12.7116 19.6 11.5 22.5965 11.5ZM22.5965 16.1C20.7986 16.1 19.0743 16.827 17.8031 18.121C16.5318 19.415 15.8175 21.17 15.8175 23C15.8175 24.83 16.5318 26.585 17.8031 27.879C19.0743 29.173 20.7986 29.9 22.5965 29.9C24.3944 29.9 26.1186 29.173 27.3899 27.879C28.6612 26.585 29.3754 24.83 29.3754 23C29.3754 21.17 28.6612 19.415 27.3899 18.121C26.1186 16.827 24.3944 16.1 22.5965 16.1Z" fill="white"/>
</svg>
