<svg width="55" height="55" viewBox="0 0 55 55" fill="none" xmlns="http://www.w3.org/2000/svg">
<path d="M19.636 43.979C19.6894 43.209 19.8006 42.4413 19.9676 41.6851C20.1137 41.009 20.5565 39.0955 21.2057 36.3226L21.222 36.2538L22.1193 32.4313C22.3024 31.6522 22.4439 31.0472 22.5389 30.8455C22.0887 29.8167 21.8643 28.7053 21.8805 27.5845C21.8805 24.5205 23.6333 22.1463 25.9056 22.1463C26.7403 22.1326 27.5379 22.4901 28.0897 23.1226C28.6416 23.7551 28.8966 24.5961 28.79 25.4051C28.79 26.4432 28.5929 27.2338 27.7373 30.0686C27.6051 30.5035 27.4776 30.9397 27.3547 31.3772C27.2365 31.808 27.1345 32.1976 27.0487 32.5734C26.8261 33.458 27.0301 34.3999 27.5982 35.1057C27.8736 35.4522 28.2293 35.7282 28.6352 35.9105C29.0412 36.0928 29.4855 36.1759 29.9307 36.153C33.3901 36.153 35.9592 31.604 35.9592 25.7305C35.9592 21.2159 32.9681 18.2276 28.0016 18.2276C26.7584 18.1819 25.519 18.3917 24.362 18.8438C23.205 19.2958 22.1555 19.9803 21.2799 20.8538C20.3856 21.7465 19.6799 22.8063 19.2042 23.9713C18.7285 25.1363 18.4922 26.3833 18.5092 27.6395C18.4515 28.9933 18.8711 30.3249 19.6963 31.407C20.116 31.7278 20.276 32.2847 20.1021 32.759C20.007 33.144 19.7775 34.024 19.6917 34.3174C19.6674 34.4609 19.6097 34.5968 19.5232 34.7145C19.4367 34.8323 19.3237 34.9285 19.1932 34.9957C19.0664 35.0615 18.9256 35.0965 18.7825 35.0977C18.6393 35.0989 18.4979 35.0663 18.3701 35.0026C15.6804 33.9049 14.2058 30.928 14.2058 27.1193C14.2058 20.2786 19.9815 14.3226 28.5627 14.3226C35.8316 14.3226 41.2711 19.6599 41.2711 26.1018C41.2711 34.1959 36.7915 40.0901 30.3968 40.0901C29.4872 40.1162 28.5841 39.9309 27.7602 39.5492C26.9363 39.1675 26.2145 38.6 25.6529 37.8924L25.5532 38.298L25.0732 40.2505L25.0686 40.2688C24.73 41.6438 24.4935 42.5995 24.4008 42.957C24.155 43.7705 23.8443 44.568 23.4734 45.3403C28.087 46.427 32.9465 45.7258 37.0532 43.3807C41.1598 41.0355 44.2016 37.2247 45.5533 32.7314C46.905 28.2382 46.464 23.4038 44.3208 19.2221C42.1776 15.0403 38.4952 11.8287 34.0303 10.2475C29.5654 8.66635 24.6574 8.83561 20.3149 10.7206C15.9724 12.6055 12.5254 16.0629 10.6823 20.3822C8.8393 24.7014 8.74025 29.5544 10.4055 33.9436C12.0708 38.3328 15.374 41.9225 19.636 43.979ZM27.7698 50.4163C14.964 50.4163 4.5835 40.1565 4.5835 27.4997C4.5835 14.8428 14.964 4.58301 27.7698 4.58301C40.5755 4.58301 50.956 14.8428 50.956 27.4997C50.956 40.1565 40.5755 50.4163 27.7698 50.4163Z" fill="#F8F8F8"/>
</svg>
